<svg width="200" height="200" viewBox="0 0 200 200" xmlns="http://www.w3.org/2000/svg">
  <!-- Background -->
  <rect width="200" height="200" fill="#f0f9ff"/>
  
  <!-- Medicine bottle -->
  <rect x="70" y="45" width="60" height="105" rx="8" fill="#0369a1" stroke="#075985" stroke-width="2"/>
  
  <!-- Bottle cap -->
  <rect x="75" y="40" width="50" height="12" rx="6" fill="#0c4a6e"/>
  
  <!-- Label background -->
  <rect x="75" y="60" width="50" height="65" rx="4" fill="#ffffff"/>
  
  <!-- Product name -->
  <text x="100" y="78" font-family="Arial" font-size="7" font-weight="bold" text-anchor="middle" fill="#0369a1">OMEGA-3</text>
  <text x="100" y="88" font-family="Arial" font-size="6" text-anchor="middle" fill="#0369a1">Fish Oil</text>
  
  <!-- Fish icon -->
  <path d="M 85 100 Q 80 95 75 100 Q 80 105 85 100 L 95 100 Q 100 95 105 100 Q 100 105 95 100 Z" fill="#0891b2"/>
  <circle cx="90" cy="100" r="1" fill="white"/>
  <path d="M 105 100 L 110 95 L 110 105 Z" fill="#0891b2"/>
  
  <!-- Capsules -->
  <ellipse cx="90" cy="115" rx="5" ry="3" fill="#fbbf24"/>
  <ellipse cx="105" cy="115" rx="5" ry="3" fill="#fbbf24"/>
  <ellipse cx="97" cy="122" rx="5" ry="3" fill="#fbbf24"/>
  
  <!-- Heart icon for cardiovascular health -->
  <path d="M 140 85 Q 135 80 130 85 Q 125 80 120 85 Q 125 90 130 95 Q 135 90 140 85 Z" fill="#dc2626"/>
  
  <!-- Brain icon -->
  <circle cx="45" cy="100" r="12" fill="#f3f4f6" stroke="#6b7280" stroke-width="2"/>
  <path d="M 40 95 Q 42 92 45 95 Q 48 92 50 95 Q 48 98 45 95 Q 42 98 40 95" fill="#6b7280"/>
  
  <!-- Benefits text -->
  <text x="100" y="170" font-family="Arial" font-size="6" text-anchor="middle" fill="#6b7280">Heart & Brain Health</text>
  <text x="100" y="180" font-family="Arial" font-size="6" text-anchor="middle" fill="#6b7280">EPA & DHA</text>
</svg>